solid OpenSCAD_Model
  facet normal -1 0 0
    outer loop
      vertex -7.9 -3.9 0
      vertex -7.9 3.9 9.6
      vertex -7.9 3.9 0
    endloop
  endfacet
  facet normal -1 -0 0
    outer loop
      vertex -7.9 3.9 9.6
      vertex -7.9 -3.9 0
      vertex -7.9 -3.9 9.6
    endloop
  endfacet
  facet normal 0 0 1
    outer loop
      vertex 7.9 3.9 9.6
      vertex 6.425 0 9.6
      vertex 7.9 -3.9 9.6
    endloop
  endfacet
  facet normal 0 0 1
    outer loop
      vertex 7.9 3.9 9.6
      vertex 6.37201 0.504186 9.6
      vertex 6.425 0 9.6
    endloop
  endfacet
  facet normal 0 0 1
    outer loop
      vertex 7.9 3.9 9.6
      vertex 6.21535 0.986336 9.6
      vertex 6.37201 0.504186 9.6
    endloop
  endfacet
  facet normal 0 0 1
    outer loop
      vertex 7.9 3.9 9.6
      vertex 5.96187 1.42538 9.6
      vertex 6.21535 0.986336 9.6
    endloop
  endfacet
  facet normal 0 0 1
    outer loop
      vertex 7.9 3.9 9.6
      vertex 5.62264 1.80213 9.6
      vertex 5.96187 1.42538 9.6
    endloop
  endfacet
  facet normal 0 0 1
    outer loop
      vertex 7.9 3.9 9.6
      vertex 5.2125 2.10011 9.6
      vertex 5.62264 1.80213 9.6
    endloop
  endfacet
  facet normal 0 0 1
    outer loop
      vertex 7.9 3.9 9.6
      vertex 4.74937 2.30631 9.6
      vertex 5.2125 2.10011 9.6
    endloop
  endfacet
  facet normal 0 0 1
    outer loop
      vertex 7.9 3.9 9.6
      vertex 4.25348 2.41172 9.6
      vertex 4.74937 2.30631 9.6
    endloop
  endfacet
  facet normal 0 0 1
    outer loop
      vertex 7.9 3.9 9.6
      vertex 3.74652 2.41172 9.6
      vertex 4.25348 2.41172 9.6
    endloop
  endfacet
  facet normal 0 0 1
    outer loop
      vertex 7.9 3.9 9.6
      vertex 3.25063 2.30631 9.6
      vertex 3.74652 2.41172 9.6
    endloop
  endfacet
  facet normal 0 0 1
    outer loop
      vertex 1.62799 0.504186 9.6
      vertex -1.575 0 9.6
      vertex 1.575 0 9.6
    endloop
  endfacet
  facet normal 0 0 1
    outer loop
      vertex -1.62799 0.504186 9.6
      vertex 1.62799 0.504186 9.6
      vertex 1.78465 0.986336 9.6
    endloop
  endfacet
  facet normal 0 0 1
    outer loop
      vertex -1.78465 0.986336 9.6
      vertex 1.78465 0.986336 9.6
      vertex 2.03813 1.42538 9.6
    endloop
  endfacet
  facet normal 0 0 1
    outer loop
      vertex -2.03813 1.42538 9.6
      vertex 2.03813 1.42538 9.6
      vertex 2.37736 1.80213 9.6
    endloop
  endfacet
  facet normal 0 0 1
    outer loop
      vertex -2.37736 1.80213 9.6
      vertex 2.37736 1.80213 9.6
      vertex 2.7875 2.10011 9.6
    endloop
  endfacet
  facet normal 0 0 1
    outer loop
      vertex 1.62799 0.504186 9.6
      vertex -1.62799 0.504186 9.6
      vertex -1.575 0 9.6
    endloop
  endfacet
  facet normal 0 0 1
    outer loop
      vertex -2.7875 2.10011 9.6
      vertex 2.7875 2.10011 9.6
      vertex 3.25063 2.30631 9.6
    endloop
  endfacet
  facet normal 0 0 1
    outer loop
      vertex 1.78465 0.986336 9.6
      vertex -1.78465 0.986336 9.6
      vertex -1.62799 0.504186 9.6
    endloop
  endfacet
  facet normal 0 0 1
    outer loop
      vertex -3.25063 2.30631 9.6
      vertex 3.25063 2.30631 9.6
      vertex 7.9 3.9 9.6
    endloop
  endfacet
  facet normal 0 0 1
    outer loop
      vertex 2.03813 1.42538 9.6
      vertex -2.03813 1.42538 9.6
      vertex -1.78465 0.986336 9.6
    endloop
  endfacet
  facet normal 0 0 1
    outer loop
      vertex 2.37736 1.80213 9.6
      vertex -2.37736 1.80213 9.6
      vertex -2.03813 1.42538 9.6
    endloop
  endfacet
  facet normal 0 0 1
    outer loop
      vertex 2.7875 2.10011 9.6
      vertex -2.7875 2.10011 9.6
      vertex -2.37736 1.80213 9.6
    endloop
  endfacet
  facet normal 0 0 1
    outer loop
      vertex 3.25063 2.30631 9.6
      vertex -3.25063 2.30631 9.6
      vertex -2.7875 2.10011 9.6
    endloop
  endfacet
  facet normal 0 0 1
    outer loop
      vertex 7.9 3.9 9.6
      vertex -3.74652 2.41172 9.6
      vertex -3.25063 2.30631 9.6
    endloop
  endfacet
  facet normal -0 0 1
    outer loop
      vertex -7.9 3.9 9.6
      vertex -3.74652 2.41172 9.6
      vertex 7.9 3.9 9.6
    endloop
  endfacet
  facet normal 0 0 1
    outer loop
      vertex -6.37201 0.504186 9.6
      vertex -7.9 3.9 9.6
      vertex -6.425 0 9.6
    endloop
  endfacet
  facet normal 0 0 1
    outer loop
      vertex -6.21535 0.986336 9.6
      vertex -7.9 3.9 9.6
      vertex -6.37201 0.504186 9.6
    endloop
  endfacet
  facet normal 0 0 1
    outer loop
      vertex -5.96187 1.42538 9.6
      vertex -7.9 3.9 9.6
      vertex -6.21535 0.986336 9.6
    endloop
  endfacet
  facet normal 0 0 1
    outer loop
      vertex -5.62264 1.80213 9.6
      vertex -7.9 3.9 9.6
      vertex -5.96187 1.42538 9.6
    endloop
  endfacet
  facet normal 0 0 1
    outer loop
      vertex -5.2125 2.10011 9.6
      vertex -7.9 3.9 9.6
      vertex -5.62264 1.80213 9.6
    endloop
  endfacet
  facet normal 0 0 1
    outer loop
      vertex -4.74937 2.30631 9.6
      vertex -7.9 3.9 9.6
      vertex -5.2125 2.10011 9.6
    endloop
  endfacet
  facet normal 0 0 1
    outer loop
      vertex -4.25348 2.41172 9.6
      vertex -7.9 3.9 9.6
      vertex -4.74937 2.30631 9.6
    endloop
  endfacet
  facet normal 0 0 1
    outer loop
      vertex -3.74652 2.41172 9.6
      vertex -7.9 3.9 9.6
      vertex -4.25348 2.41172 9.6
    endloop
  endfacet
  facet normal -0 0 1
    outer loop
      vertex 6.37201 -0.504186 9.6
      vertex 7.9 -3.9 9.6
      vertex 6.425 0 9.6
    endloop
  endfacet
  facet normal -0 0 1
    outer loop
      vertex 6.21535 -0.986336 9.6
      vertex 7.9 -3.9 9.6
      vertex 6.37201 -0.504186 9.6
    endloop
  endfacet
  facet normal -0 0 1
    outer loop
      vertex 5.96187 -1.42538 9.6
      vertex 7.9 -3.9 9.6
      vertex 6.21535 -0.986336 9.6
    endloop
  endfacet
  facet normal -0 0 1
    outer loop
      vertex 5.62264 -1.80213 9.6
      vertex 7.9 -3.9 9.6
      vertex 5.96187 -1.42538 9.6
    endloop
  endfacet
  facet normal -0 0 1
    outer loop
      vertex 5.2125 -2.10011 9.6
      vertex 7.9 -3.9 9.6
      vertex 5.62264 -1.80213 9.6
    endloop
  endfacet
  facet normal -0 0 1
    outer loop
      vertex 4.74937 -2.30631 9.6
      vertex 7.9 -3.9 9.6
      vertex 5.2125 -2.10011 9.6
    endloop
  endfacet
  facet normal -0 0 1
    outer loop
      vertex 4.25348 -2.41172 9.6
      vertex 7.9 -3.9 9.6
      vertex 4.74937 -2.30631 9.6
    endloop
  endfacet
  facet normal -0 0 1
    outer loop
      vertex 3.74652 -2.41172 9.6
      vertex 7.9 -3.9 9.6
      vertex 4.25348 -2.41172 9.6
    endloop
  endfacet
  facet normal 0 0 1
    outer loop
      vertex 3.25063 -2.30631 9.6
      vertex 7.9 -3.9 9.6
      vertex 3.74652 -2.41172 9.6
    endloop
  endfacet
  facet normal -0 0 1
    outer loop
      vertex -1.575 0 9.6
      vertex 1.62799 -0.504186 9.6
      vertex 1.575 0 9.6
    endloop
  endfacet
  facet normal 0 0 1
    outer loop
      vertex -1.62799 -0.504186 9.6
      vertex 1.62799 -0.504186 9.6
      vertex -1.575 0 9.6
    endloop
  endfacet
  facet normal 0 0 1
    outer loop
      vertex 1.62799 -0.504186 9.6
      vertex -1.62799 -0.504186 9.6
      vertex 1.78465 -0.986336 9.6
    endloop
  endfacet
  facet normal 0 0 1
    outer loop
      vertex -1.78465 -0.986336 9.6
      vertex 1.78465 -0.986336 9.6
      vertex -1.62799 -0.504186 9.6
    endloop
  endfacet
  facet normal 0 0 1
    outer loop
      vertex 1.78465 -0.986336 9.6
      vertex -1.78465 -0.986336 9.6
      vertex 2.03813 -1.42538 9.6
    endloop
  endfacet
  facet normal 0 0 1
    outer loop
      vertex -2.03813 -1.42538 9.6
      vertex 2.03813 -1.42538 9.6
      vertex -1.78465 -0.986336 9.6
    endloop
  endfacet
  facet normal 0 0 1
    outer loop
      vertex 2.03813 -1.42538 9.6
      vertex -2.03813 -1.42538 9.6
      vertex 2.37736 -1.80213 9.6
    endloop
  endfacet
  facet normal 0 0 1
    outer loop
      vertex -2.37736 -1.80213 9.6
      vertex 2.37736 -1.80213 9.6
      vertex -2.03813 -1.42538 9.6
    endloop
  endfacet
  facet normal 0 0 1
    outer loop
      vertex 2.37736 -1.80213 9.6
      vertex -2.37736 -1.80213 9.6
      vertex 2.7875 -2.10011 9.6
    endloop
  endfacet
  facet normal 0 0 1
    outer loop
      vertex -2.7875 -2.10011 9.6
      vertex 2.7875 -2.10011 9.6
      vertex -2.37736 -1.80213 9.6
    endloop
  endfacet
  facet normal 0 0 1
    outer loop
      vertex 2.7875 -2.10011 9.6
      vertex -2.7875 -2.10011 9.6
      vertex 3.25063 -2.30631 9.6
    endloop
  endfacet
  facet normal 0 0 1
    outer loop
      vertex -3.25063 -2.30631 9.6
      vertex 3.25063 -2.30631 9.6
      vertex -2.7875 -2.10011 9.6
    endloop
  endfacet
  facet normal 0 0 1
    outer loop
      vertex 3.25063 -2.30631 9.6
      vertex -3.25063 -2.30631 9.6
      vertex 7.9 -3.9 9.6
    endloop
  endfacet
  facet normal -0 0 1
    outer loop
      vertex -3.74652 -2.41172 9.6
      vertex 7.9 -3.9 9.6
      vertex -3.25063 -2.30631 9.6
    endloop
  endfacet
  facet normal 0 0 1
    outer loop
      vertex -7.9 -3.9 9.6
      vertex -3.74652 -2.41172 9.6
      vertex -4.25348 -2.41172 9.6
    endloop
  endfacet
  facet normal 0 0 1
    outer loop
      vertex -7.9 -3.9 9.6
      vertex -6.425 0 9.6
      vertex -7.9 3.9 9.6
    endloop
  endfacet
  facet normal 0 0 1
    outer loop
      vertex -6.425 0 9.6
      vertex -7.9 -3.9 9.6
      vertex -6.37201 -0.504186 9.6
    endloop
  endfacet
  facet normal 0 0 1
    outer loop
      vertex -3.74652 -2.41172 9.6
      vertex -7.9 -3.9 9.6
      vertex 7.9 -3.9 9.6
    endloop
  endfacet
  facet normal 0 0 1
    outer loop
      vertex -4.74937 -2.30631 9.6
      vertex -7.9 -3.9 9.6
      vertex -4.25348 -2.41172 9.6
    endloop
  endfacet
  facet normal 0 0 1
    outer loop
      vertex -5.2125 -2.10011 9.6
      vertex -7.9 -3.9 9.6
      vertex -4.74937 -2.30631 9.6
    endloop
  endfacet
  facet normal 0 0 1
    outer loop
      vertex -5.62264 -1.80213 9.6
      vertex -7.9 -3.9 9.6
      vertex -5.2125 -2.10011 9.6
    endloop
  endfacet
  facet normal 0 0 1
    outer loop
      vertex -5.96187 -1.42538 9.6
      vertex -7.9 -3.9 9.6
      vertex -5.62264 -1.80213 9.6
    endloop
  endfacet
  facet normal 0 0 1
    outer loop
      vertex -6.21535 -0.986336 9.6
      vertex -7.9 -3.9 9.6
      vertex -5.96187 -1.42538 9.6
    endloop
  endfacet
  facet normal 0 0 1
    outer loop
      vertex -6.37201 -0.504186 9.6
      vertex -7.9 -3.9 9.6
      vertex -6.21535 -0.986336 9.6
    endloop
  endfacet
  facet normal 1 -0 0
    outer loop
      vertex 7.9 -3.9 9.6
      vertex 7.9 3.9 0
      vertex 7.9 3.9 9.6
    endloop
  endfacet
  facet normal 1 0 0
    outer loop
      vertex 7.9 3.9 0
      vertex 7.9 -3.9 9.6
      vertex 7.9 -3.9 0
    endloop
  endfacet
  facet normal 0 1 -0
    outer loop
      vertex 7.9 3.9 0
      vertex -7.9 3.9 9.6
      vertex 7.9 3.9 9.6
    endloop
  endfacet
  facet normal 0 1 0
    outer loop
      vertex -7.9 3.9 9.6
      vertex 7.9 3.9 0
      vertex -7.9 3.9 0
    endloop
  endfacet
  facet normal -0 0 -1
    outer loop
      vertex -3.65 -2.2 0
      vertex -4.35 -2.45 0
      vertex -4.35 -2.2 0
    endloop
  endfacet
  facet normal 0 0 -1
    outer loop
      vertex -3.65 2.2 0
      vertex -4.35 2.2 0
      vertex -3.65 2.45 0
    endloop
  endfacet
  facet normal 0 0 -1
    outer loop
      vertex 4.35 2.2 0
      vertex 3.65 2.2 0
      vertex 4.35 2.45 0
    endloop
  endfacet
  facet normal 0 0 -1
    outer loop
      vertex 6.2 -0.35 0
      vertex 6.45 0.35 0
      vertex 6.45 -0.35 0
    endloop
  endfacet
  facet normal -0 0 -1
    outer loop
      vertex 6.45 0.35 0
      vertex 6.2 -0.35 0
      vertex 6.2 0.35 0
    endloop
  endfacet
  facet normal 0 0 -1
    outer loop
      vertex 6.45 -0.35 0
      vertex 7.9 -3.9 0
      vertex 6.45 -2.45 0
    endloop
  endfacet
  facet normal 0 0 -1
    outer loop
      vertex 7.9 -3.9 0
      vertex 4.35 -2.45 0
      vertex 6.45 -2.45 0
    endloop
  endfacet
  facet normal 0 0 -1
    outer loop
      vertex 4.35 -2.45 0
      vertex 3.65 -2.45 0
      vertex 4.35 -2.2 0
    endloop
  endfacet
  facet normal 0 0 -1
    outer loop
      vertex 7.9 -3.9 0
      vertex 3.65 -2.45 0
      vertex 4.35 -2.45 0
    endloop
  endfacet
  facet normal 0 0 -1
    outer loop
      vertex 7.9 -3.9 0
      vertex -3.65 -2.45 0
      vertex 3.65 -2.45 0
    endloop
  endfacet
  facet normal 0 0 -1
    outer loop
      vertex -3.65 -2.45 0
      vertex -4.35 -2.45 0
      vertex -3.65 -2.2 0
    endloop
  endfacet
  facet normal 0 0 -1
    outer loop
      vertex -7.9 -3.9 0
      vertex -3.65 -2.45 0
      vertex 7.9 -3.9 0
    endloop
  endfacet
  facet normal -0 0 -1
    outer loop
      vertex -3.65 -2.45 0
      vertex -7.9 -3.9 0
      vertex -4.35 -2.45 0
    endloop
  endfacet
  facet normal 0 0 -1
    outer loop
      vertex -7.9 -3.9 0
      vertex -6.45 -0.35 0
      vertex -6.45 -2.45 0
    endloop
  endfacet
  facet normal -0 0 -1
    outer loop
      vertex -6.45 -0.35 0
      vertex -7.9 -3.9 0
      vertex -6.45 0.35 0
    endloop
  endfacet
  facet normal 0 0 -1
    outer loop
      vertex -7.9 3.9 0
      vertex -6.45 0.35 0
      vertex -7.9 -3.9 0
    endloop
  endfacet
  facet normal -0 0 -1
    outer loop
      vertex -4.35 -2.45 0
      vertex -7.9 -3.9 0
      vertex -6.45 -2.45 0
    endloop
  endfacet
  facet normal 0 0 -1
    outer loop
      vertex 7.9 -3.9 0
      vertex 6.45 -0.35 0
      vertex 7.9 3.9 0
    endloop
  endfacet
  facet normal 0 0 -1
    outer loop
      vertex 6.45 0.35 0
      vertex 7.9 3.9 0
      vertex 6.45 -0.35 0
    endloop
  endfacet
  facet normal 0 0 -1
    outer loop
      vertex 6.45 2.45 0
      vertex 7.9 3.9 0
      vertex 6.45 0.35 0
    endloop
  endfacet
  facet normal 0 0 -1
    outer loop
      vertex 4.35 2.45 0
      vertex 7.9 3.9 0
      vertex 6.45 2.45 0
    endloop
  endfacet
  facet normal 0 0 -1
    outer loop
      vertex 3.65 2.45 0
      vertex 4.35 2.45 0
      vertex 3.65 2.2 0
    endloop
  endfacet
  facet normal 0 0 -1
    outer loop
      vertex 4.35 2.45 0
      vertex 3.65 2.45 0
      vertex 7.9 3.9 0
    endloop
  endfacet
  facet normal 0 0 -1
    outer loop
      vertex -3.65 2.45 0
      vertex 7.9 3.9 0
      vertex 3.65 2.45 0
    endloop
  endfacet
  facet normal 0 0 -1
    outer loop
      vertex -4.35 2.45 0
      vertex -3.65 2.45 0
      vertex -4.35 2.2 0
    endloop
  endfacet
  facet normal 0 0 -1
    outer loop
      vertex -7.9 3.9 0
      vertex -3.65 2.45 0
      vertex -4.35 2.45 0
    endloop
  endfacet
  facet normal 0 0 -1
    outer loop
      vertex -7.9 3.9 0
      vertex -4.35 2.45 0
      vertex -6.45 2.45 0
    endloop
  endfacet
  facet normal 0 0 -1
    outer loop
      vertex -3.65 2.45 0
      vertex -7.9 3.9 0
      vertex 7.9 3.9 0
    endloop
  endfacet
  facet normal 0 0 -1
    outer loop
      vertex -6.45 0.35 0
      vertex -7.9 3.9 0
      vertex -6.45 2.45 0
    endloop
  endfacet
  facet normal -0 0 -1
    outer loop
      vertex 4.35 -2.2 0
      vertex 3.65 -2.45 0
      vertex 3.65 -2.2 0
    endloop
  endfacet
  facet normal 0 0 -1
    outer loop
      vertex -6.45 -0.35 0
      vertex -6.2 0.35 0
      vertex -6.2 -0.35 0
    endloop
  endfacet
  facet normal -0 0 -1
    outer loop
      vertex -6.2 0.35 0
      vertex -6.45 -0.35 0
      vertex -6.45 0.35 0
    endloop
  endfacet
  facet normal 0 -1 0
    outer loop
      vertex -7.9 -3.9 0
      vertex 7.9 -3.9 9.6
      vertex -7.9 -3.9 9.6
    endloop
  endfacet
  facet normal 0 -1 -0
    outer loop
      vertex 7.9 -3.9 9.6
      vertex -7.9 -3.9 0
      vertex 7.9 -3.9 0
    endloop
  endfacet
  facet normal 1 -0 0
    outer loop
      vertex -6.45 0.35 8.6
      vertex -6.45 2.45 0
      vertex -6.45 2.45 8.6
    endloop
  endfacet
  facet normal 1 0 0
    outer loop
      vertex -6.45 2.45 0
      vertex -6.45 0.35 8.6
      vertex -6.45 0.35 0
    endloop
  endfacet
  facet normal 1 -0 0
    outer loop
      vertex -6.45 -2.45 8.6
      vertex -6.45 -0.35 0
      vertex -6.45 -0.35 8.6
    endloop
  endfacet
  facet normal 1 0 0
    outer loop
      vertex -6.45 -0.35 0
      vertex -6.45 -2.45 8.6
      vertex -6.45 -2.45 0
    endloop
  endfacet
  facet normal 0 0 -1
    outer loop
      vertex 6.45 -2.45 8.6
      vertex 6.2 -0.35 8.6
      vertex 6.45 -0.35 8.6
    endloop
  endfacet
  facet normal 0 0 -1
    outer loop
      vertex 6.45 -2.45 8.6
      vertex 4.35 -2.2 8.6
      vertex 6.2 -0.35 8.6
    endloop
  endfacet
  facet normal 0 0 -1
    outer loop
      vertex 4.35 -2.2 8.6
      vertex 6.45 -2.45 8.6
      vertex 4.35 -2.45 8.6
    endloop
  endfacet
  facet normal 0 0 -1
    outer loop
      vertex 6.2 0.35 8.6
      vertex 6.45 2.45 8.6
      vertex 6.45 0.35 8.6
    endloop
  endfacet
  facet normal -0 0 -1
    outer loop
      vertex 6.2 -0.35 8.6
      vertex 4.35 -2.2 8.6
      vertex 6.2 0.35 8.6
    endloop
  endfacet
  facet normal 0 0 -1
    outer loop
      vertex 4.35 2.2 8.6
      vertex 6.2 0.35 8.6
      vertex 4.35 -2.2 8.6
    endloop
  endfacet
  facet normal 0 0 -1
    outer loop
      vertex 6.2 0.35 8.6
      vertex 4.35 2.2 8.6
      vertex 6.45 2.45 8.6
    endloop
  endfacet
  facet normal -0 0 -1
    outer loop
      vertex 6.45 2.45 8.6
      vertex 4.35 2.2 8.6
      vertex 4.35 2.45 8.6
    endloop
  endfacet
  facet normal 0 0 -1
    outer loop
      vertex -6.45 -2.45 8.6
      vertex -4.35 -2.2 8.6
      vertex -4.35 -2.45 8.6
    endloop
  endfacet
  facet normal 0 0 -1
    outer loop
      vertex -4.35 -2.2 8.6
      vertex -6.2 -0.35 8.6
      vertex -4.35 2.2 8.6
    endloop
  endfacet
  facet normal 0 0 -1
    outer loop
      vertex -6.2 0.35 8.6
      vertex -4.35 2.2 8.6
      vertex -6.2 -0.35 8.6
    endloop
  endfacet
  facet normal -0 0 -1
    outer loop
      vertex -4.35 -2.2 8.6
      vertex -6.45 -2.45 8.6
      vertex -6.2 -0.35 8.6
    endloop
  endfacet
  facet normal -0 0 -1
    outer loop
      vertex -6.2 -0.35 8.6
      vertex -6.45 -2.45 8.6
      vertex -6.45 -0.35 8.6
    endloop
  endfacet
  facet normal 0 0 -1
    outer loop
      vertex -4.35 -2.2 8.6
      vertex -3.65 2.2 8.6
      vertex -3.65 -2.2 8.6
    endloop
  endfacet
  facet normal -0 0 -1
    outer loop
      vertex -3.65 2.2 8.6
      vertex -4.35 -2.2 8.6
      vertex -4.35 2.2 8.6
    endloop
  endfacet
  facet normal 0 0 -1
    outer loop
      vertex -6.45 2.45 8.6
      vertex -4.35 2.2 8.6
      vertex -6.2 0.35 8.6
    endloop
  endfacet
  facet normal 0 0 -1
    outer loop
      vertex -6.45 2.45 8.6
      vertex -6.2 0.35 8.6
      vertex -6.45 0.35 8.6
    endloop
  endfacet
  facet normal 0 0 -1
    outer loop
      vertex -4.35 2.2 8.6
      vertex -6.45 2.45 8.6
      vertex -4.35 2.45 8.6
    endloop
  endfacet
  facet normal 0 0 -1
    outer loop
      vertex 1.0037 -1.11472 8.6
      vertex 3.65 -2.2 8.6
      vertex 3.65 -2.45 8.6
    endloop
  endfacet
  facet normal 0 0 -1
    outer loop
      vertex 3.65 -2.2 8.6
      vertex 1.5 -3.8147e-07 8.6
      vertex 3.65 2.2 8.6
    endloop
  endfacet
  facet normal 0 0 -1
    outer loop
      vertex 1.46722 0.311867 8.6
      vertex 3.65 2.2 8.6
      vertex 1.5 -3.8147e-07 8.6
    endloop
  endfacet
  facet normal 0 0 -1
    outer loop
      vertex 3.65 -2.2 8.6
      vertex 1.46722 -0.311868 8.6
      vertex 1.5 -3.8147e-07 8.6
    endloop
  endfacet
  facet normal 0 0 -1
    outer loop
      vertex 3.65 -2.2 8.6
      vertex 1.37032 -0.610106 8.6
      vertex 1.46722 -0.311868 8.6
    endloop
  endfacet
  facet normal 0 0 -1
    outer loop
      vertex 3.65 -2.2 8.6
      vertex 1.21353 -0.881678 8.6
      vertex 1.37032 -0.610106 8.6
    endloop
  endfacet
  facet normal 0 0 -1
    outer loop
      vertex 3.65 -2.2 8.6
      vertex 1.0037 -1.11472 8.6
      vertex 1.21353 -0.881678 8.6
    endloop
  endfacet
  facet normal 0 0 -1
    outer loop
      vertex 3.65 -2.45 8.6
      vertex 0.75 -1.29904 8.6
      vertex 1.0037 -1.11472 8.6
    endloop
  endfacet
  facet normal 0 0 -1
    outer loop
      vertex 3.65 -2.45 8.6
      vertex 0.463525 -1.42659 8.6
      vertex 0.75 -1.29904 8.6
    endloop
  endfacet
  facet normal 0 0 -1
    outer loop
      vertex 3.65 -2.45 8.6
      vertex 0.156792 -1.49178 8.6
      vertex 0.463525 -1.42659 8.6
    endloop
  endfacet
  facet normal 0 0 -1
    outer loop
      vertex 3.65 -2.45 8.6
      vertex -0.156793 -1.49178 8.6
      vertex 0.156792 -1.49178 8.6
    endloop
  endfacet
  facet normal 0 0 -1
    outer loop
      vertex -3.65 -2.45 8.6
      vertex -0.156793 -1.49178 8.6
      vertex 3.65 -2.45 8.6
    endloop
  endfacet
  facet normal -0 0 -1
    outer loop
      vertex -1.37032 -0.610106 8.6
      vertex -3.65 -2.2 8.6
      vertex -1.46722 -0.311868 8.6
    endloop
  endfacet
  facet normal -0 0 -1
    outer loop
      vertex -1.21353 -0.881678 8.6
      vertex -3.65 -2.2 8.6
      vertex -1.37032 -0.610106 8.6
    endloop
  endfacet
  facet normal -0 0 -1
    outer loop
      vertex -1.0037 -1.11472 8.6
      vertex -3.65 -2.2 8.6
      vertex -1.21353 -0.881678 8.6
    endloop
  endfacet
  facet normal 0 0 -1
    outer loop
      vertex -3.65 -2.2 8.6
      vertex -1.0037 -1.11472 8.6
      vertex -3.65 -2.45 8.6
    endloop
  endfacet
  facet normal -0 0 -1
    outer loop
      vertex -0.75 -1.29904 8.6
      vertex -3.65 -2.45 8.6
      vertex -1.0037 -1.11472 8.6
    endloop
  endfacet
  facet normal -0 0 -1
    outer loop
      vertex -0.463526 -1.42659 8.6
      vertex -3.65 -2.45 8.6
      vertex -0.75 -1.29904 8.6
    endloop
  endfacet
  facet normal -0 0 -1
    outer loop
      vertex -0.156793 -1.49178 8.6
      vertex -3.65 -2.45 8.6
      vertex -0.463526 -1.42659 8.6
    endloop
  endfacet
  facet normal 0 0 -1
    outer loop
      vertex 3.65 -2.2 8.6
      vertex 4.35 2.2 8.6
      vertex 4.35 -2.2 8.6
    endloop
  endfacet
  facet normal -0 0 -1
    outer loop
      vertex 4.35 2.2 8.6
      vertex 3.65 -2.2 8.6
      vertex 3.65 2.2 8.6
    endloop
  endfacet
  facet normal 0 0 -1
    outer loop
      vertex 1.37032 0.610104 8.6
      vertex 3.65 2.2 8.6
      vertex 1.46722 0.311867 8.6
    endloop
  endfacet
  facet normal 0 0 -1
    outer loop
      vertex 1.21353 0.881677 8.6
      vertex 3.65 2.2 8.6
      vertex 1.37032 0.610104 8.6
    endloop
  endfacet
  facet normal 0 0 -1
    outer loop
      vertex 1.0037 1.11472 8.6
      vertex 3.65 2.2 8.6
      vertex 1.21353 0.881677 8.6
    endloop
  endfacet
  facet normal -0 0 -1
    outer loop
      vertex 3.65 2.2 8.6
      vertex 1.0037 1.11472 8.6
      vertex 3.65 2.45 8.6
    endloop
  endfacet
  facet normal 0 0 -1
    outer loop
      vertex 0.75 1.29904 8.6
      vertex 3.65 2.45 8.6
      vertex 1.0037 1.11472 8.6
    endloop
  endfacet
  facet normal 0 0 -1
    outer loop
      vertex 0.463525 1.42658 8.6
      vertex 3.65 2.45 8.6
      vertex 0.75 1.29904 8.6
    endloop
  endfacet
  facet normal 0 0 -1
    outer loop
      vertex 0.156792 1.49178 8.6
      vertex 3.65 2.45 8.6
      vertex 0.463525 1.42658 8.6
    endloop
  endfacet
  facet normal 0 0 -1
    outer loop
      vertex -0.156793 1.49178 8.6
      vertex 3.65 2.45 8.6
      vertex 0.156792 1.49178 8.6
    endloop
  endfacet
  facet normal 0 0 -1
    outer loop
      vertex -3.65 2.45 8.6
      vertex -0.156793 1.49178 8.6
      vertex -0.463526 1.42658 8.6
    endloop
  endfacet
  facet normal -0 0 -1
    outer loop
      vertex -1.46722 -0.311868 8.6
      vertex -3.65 -2.2 8.6
      vertex -1.5 -3.8147e-07 8.6
    endloop
  endfacet
  facet normal 0 0 -1
    outer loop
      vertex -3.65 2.2 8.6
      vertex -1.5 -3.8147e-07 8.6
      vertex -3.65 -2.2 8.6
    endloop
  endfacet
  facet normal 0 0 -1
    outer loop
      vertex -1.5 -3.8147e-07 8.6
      vertex -3.65 2.2 8.6
      vertex -1.46722 0.311867 8.6
    endloop
  endfacet
  facet normal 0 0 -1
    outer loop
      vertex -1.46722 0.311867 8.6
      vertex -3.65 2.2 8.6
      vertex -1.37032 0.610104 8.6
    endloop
  endfacet
  facet normal 0 0 -1
    outer loop
      vertex -1.37032 0.610104 8.6
      vertex -3.65 2.2 8.6
      vertex -1.21353 0.881677 8.6
    endloop
  endfacet
  facet normal 0 0 -1
    outer loop
      vertex -3.65 2.2 8.6
      vertex -1.0037 1.11472 8.6
      vertex -1.21353 0.881677 8.6
    endloop
  endfacet
  facet normal 0 0 -1
    outer loop
      vertex -3.65 2.45 8.6
      vertex -1.0037 1.11472 8.6
      vertex -3.65 2.2 8.6
    endloop
  endfacet
  facet normal 0 0 -1
    outer loop
      vertex -1.0037 1.11472 8.6
      vertex -3.65 2.45 8.6
      vertex -0.75 1.29904 8.6
    endloop
  endfacet
  facet normal 0 0 -1
    outer loop
      vertex -0.75 1.29904 8.6
      vertex -3.65 2.45 8.6
      vertex -0.463526 1.42658 8.6
    endloop
  endfacet
  facet normal 0 0 -1
    outer loop
      vertex -0.156793 1.49178 8.6
      vertex -3.65 2.45 8.6
      vertex 3.65 2.45 8.6
    endloop
  endfacet
  facet normal -1 0 0
    outer loop
      vertex 6.45 -2.45 0
      vertex 6.45 -0.35 8.6
      vertex 6.45 -0.35 0
    endloop
  endfacet
  facet normal -1 -0 0
    outer loop
      vertex 6.45 -0.35 8.6
      vertex 6.45 -2.45 0
      vertex 6.45 -2.45 8.6
    endloop
  endfacet
  facet normal -1 0 0
    outer loop
      vertex 6.45 0.35 0
      vertex 6.45 2.45 8.6
      vertex 6.45 2.45 0
    endloop
  endfacet
  facet normal -1 -0 0
    outer loop
      vertex 6.45 2.45 8.6
      vertex 6.45 0.35 0
      vertex 6.45 0.35 8.6
    endloop
  endfacet
  facet normal 0 -1 0
    outer loop
      vertex -3.65 2.45 0
      vertex 3.65 2.45 8.6
      vertex -3.65 2.45 8.6
    endloop
  endfacet
  facet normal 0 -1 -0
    outer loop
      vertex 3.65 2.45 8.6
      vertex -3.65 2.45 0
      vertex 3.65 2.45 0
    endloop
  endfacet
  facet normal 0 -1 0
    outer loop
      vertex 4.35 2.45 0
      vertex 6.45 2.45 8.6
      vertex 4.35 2.45 8.6
    endloop
  endfacet
  facet normal 0 -1 -0
    outer loop
      vertex 6.45 2.45 8.6
      vertex 4.35 2.45 0
      vertex 6.45 2.45 0
    endloop
  endfacet
  facet normal 0 -1 0
    outer loop
      vertex -6.45 2.45 0
      vertex -4.35 2.45 8.6
      vertex -6.45 2.45 8.6
    endloop
  endfacet
  facet normal 0 -1 -0
    outer loop
      vertex -4.35 2.45 8.6
      vertex -6.45 2.45 0
      vertex -4.35 2.45 0
    endloop
  endfacet
  facet normal 0 1 -0
    outer loop
      vertex 3.65 -2.45 0
      vertex -3.65 -2.45 8.6
      vertex 3.65 -2.45 8.6
    endloop
  endfacet
  facet normal 0 1 0
    outer loop
      vertex -3.65 -2.45 8.6
      vertex 3.65 -2.45 0
      vertex -3.65 -2.45 0
    endloop
  endfacet
  facet normal 0 1 -0
    outer loop
      vertex 6.45 -2.45 0
      vertex 4.35 -2.45 8.6
      vertex 6.45 -2.45 8.6
    endloop
  endfacet
  facet normal 0 1 0
    outer loop
      vertex 4.35 -2.45 8.6
      vertex 6.45 -2.45 0
      vertex 4.35 -2.45 0
    endloop
  endfacet
  facet normal 0 1 -0
    outer loop
      vertex -4.35 -2.45 0
      vertex -6.45 -2.45 8.6
      vertex -4.35 -2.45 8.6
    endloop
  endfacet
  facet normal 0 1 0
    outer loop
      vertex -6.45 -2.45 8.6
      vertex -4.35 -2.45 0
      vertex -6.45 -2.45 0
    endloop
  endfacet
  facet normal 0.866025 0.5 0
    outer loop
      vertex -1.78465 0.986336 11.4
      vertex -2.03813 1.42538 9.6
      vertex -2.03813 1.42538 11.4
    endloop
  endfacet
  facet normal 0.866025 0.5 0
    outer loop
      vertex -2.03813 1.42538 9.6
      vertex -1.78465 0.986336 11.4
      vertex -1.78465 0.986336 9.6
    endloop
  endfacet
  facet normal 0.951057 0.309017 0
    outer loop
      vertex -1.62799 0.504186 11.4
      vertex -1.78465 0.986336 9.6
      vertex -1.78465 0.986336 11.4
    endloop
  endfacet
  facet normal 0.951057 0.309017 0
    outer loop
      vertex -1.78465 0.986336 9.6
      vertex -1.62799 0.504186 11.4
      vertex -1.62799 0.504186 9.6
    endloop
  endfacet
  facet normal 0.406737 0.913545 -0
    outer loop
      vertex -2.7875 2.10011 9.6
      vertex -3.25063 2.30631 11.4
      vertex -2.7875 2.10011 11.4
    endloop
  endfacet
  facet normal 0.406737 0.913545 0
    outer loop
      vertex -3.25063 2.30631 11.4
      vertex -2.7875 2.10011 9.6
      vertex -3.25063 2.30631 9.6
    endloop
  endfacet
  facet normal -0.207912 0.978147 0
    outer loop
      vertex -4.25348 2.41172 9.6
      vertex -4.74937 2.30631 11.4
      vertex -4.25348 2.41172 11.4
    endloop
  endfacet
  facet normal -0.207912 0.978147 0
    outer loop
      vertex -4.74937 2.30631 11.4
      vertex -4.25348 2.41172 9.6
      vertex -4.74937 2.30631 9.6
    endloop
  endfacet
  facet normal -0.866025 0.5 0
    outer loop
      vertex -6.21535 0.986336 9.6
      vertex -5.96187 1.42538 11.4
      vertex -5.96187 1.42538 9.6
    endloop
  endfacet
  facet normal -0.866025 0.5 0
    outer loop
      vertex -5.96187 1.42538 11.4
      vertex -6.21535 0.986336 9.6
      vertex -6.21535 0.986336 11.4
    endloop
  endfacet
  facet normal 0.994522 -0.104528 0
    outer loop
      vertex -1.62799 -0.504186 11.4
      vertex -1.575 0 9.6
      vertex -1.575 0 11.4
    endloop
  endfacet
  facet normal 0.994522 -0.104528 0
    outer loop
      vertex -1.575 0 9.6
      vertex -1.62799 -0.504186 11.4
      vertex -1.62799 -0.504186 9.6
    endloop
  endfacet
  facet normal 0.207912 -0.978147 0
    outer loop
      vertex -3.74652 -2.41172 9.6
      vertex -3.25063 -2.30631 11.4
      vertex -3.74652 -2.41172 11.4
    endloop
  endfacet
  facet normal 0.207912 -0.978147 0
    outer loop
      vertex -3.25063 -2.30631 11.4
      vertex -3.74652 -2.41172 9.6
      vertex -3.25063 -2.30631 9.6
    endloop
  endfacet
  facet normal 0.743146 0.66913 0
    outer loop
      vertex -2.03813 1.42538 11.4
      vertex -2.37736 1.80213 9.6
      vertex -2.37736 1.80213 11.4
    endloop
  endfacet
  facet normal 0.743146 0.66913 0
    outer loop
      vertex -2.37736 1.80213 9.6
      vertex -2.03813 1.42538 11.4
      vertex -2.03813 1.42538 9.6
    endloop
  endfacet
  facet normal 0 1 -0
    outer loop
      vertex -3.74652 2.41172 9.6
      vertex -4.25348 2.41172 11.4
      vertex -3.74652 2.41172 11.4
    endloop
  endfacet
  facet normal 0 1 0
    outer loop
      vertex -4.25348 2.41172 11.4
      vertex -3.74652 2.41172 9.6
      vertex -4.25348 2.41172 9.6
    endloop
  endfacet
  facet normal 0.587785 0.809017 -0
    outer loop
      vertex -2.37736 1.80213 9.6
      vertex -2.7875 2.10011 11.4
      vertex -2.37736 1.80213 11.4
    endloop
  endfacet
  facet normal 0.587785 0.809017 0
    outer loop
      vertex -2.7875 2.10011 11.4
      vertex -2.37736 1.80213 9.6
      vertex -2.7875 2.10011 9.6
    endloop
  endfacet
  facet normal -0.994522 0.104528 0
    outer loop
      vertex -6.425 0 9.6
      vertex -6.37201 0.504186 11.4
      vertex -6.37201 0.504186 9.6
    endloop
  endfacet
  facet normal -0.994522 0.104528 0
    outer loop
      vertex -6.37201 0.504186 11.4
      vertex -6.425 0 9.6
      vertex -6.425 0 11.4
    endloop
  endfacet
  facet normal -0.743146 0.66913 0
    outer loop
      vertex -5.96187 1.42538 9.6
      vertex -5.62264 1.80213 11.4
      vertex -5.62264 1.80213 9.6
    endloop
  endfacet
  facet normal -0.743146 0.66913 0
    outer loop
      vertex -5.62264 1.80213 11.4
      vertex -5.96187 1.42538 9.6
      vertex -5.96187 1.42538 11.4
    endloop
  endfacet
  facet normal -0.406737 0.913545 0
    outer loop
      vertex -4.74937 2.30631 9.6
      vertex -5.2125 2.10011 11.4
      vertex -4.74937 2.30631 11.4
    endloop
  endfacet
  facet normal -0.406737 0.913545 0
    outer loop
      vertex -5.2125 2.10011 11.4
      vertex -4.74937 2.30631 9.6
      vertex -5.2125 2.10011 9.6
    endloop
  endfacet
  facet normal -0.587785 0.809017 0
    outer loop
      vertex -5.2125 2.10011 9.6
      vertex -5.62264 1.80213 11.4
      vertex -5.2125 2.10011 11.4
    endloop
  endfacet
  facet normal -0.587785 0.809017 0
    outer loop
      vertex -5.62264 1.80213 11.4
      vertex -5.2125 2.10011 9.6
      vertex -5.62264 1.80213 9.6
    endloop
  endfacet
  facet normal 0.994522 0.104528 0
    outer loop
      vertex -1.575 0 11.4
      vertex -1.62799 0.504186 9.6
      vertex -1.62799 0.504186 11.4
    endloop
  endfacet
  facet normal 0.994522 0.104528 0
    outer loop
      vertex -1.62799 0.504186 9.6
      vertex -1.575 0 11.4
      vertex -1.575 0 9.6
    endloop
  endfacet
  facet normal 0.587785 -0.809017 0
    outer loop
      vertex -2.7875 -2.10011 9.6
      vertex -2.37736 -1.80213 11.4
      vertex -2.7875 -2.10011 11.4
    endloop
  endfacet
  facet normal 0.587785 -0.809017 0
    outer loop
      vertex -2.37736 -1.80213 11.4
      vertex -2.7875 -2.10011 9.6
      vertex -2.37736 -1.80213 9.6
    endloop
  endfacet
  facet normal 0.951057 -0.309017 0
    outer loop
      vertex -1.78465 -0.986336 11.4
      vertex -1.62799 -0.504186 9.6
      vertex -1.62799 -0.504186 11.4
    endloop
  endfacet
  facet normal 0.951057 -0.309017 0
    outer loop
      vertex -1.62799 -0.504186 9.6
      vertex -1.78465 -0.986336 11.4
      vertex -1.78465 -0.986336 9.6
    endloop
  endfacet
  facet normal 0.207912 0.978147 -0
    outer loop
      vertex -3.25063 2.30631 9.6
      vertex -3.74652 2.41172 11.4
      vertex -3.25063 2.30631 11.4
    endloop
  endfacet
  facet normal 0.207912 0.978147 0
    outer loop
      vertex -3.74652 2.41172 11.4
      vertex -3.25063 2.30631 9.6
      vertex -3.74652 2.41172 9.6
    endloop
  endfacet
  facet normal 0 0 1
    outer loop
      vertex -1.62799 0.504186 11.4
      vertex -1.62799 -0.504186 11.4
      vertex -1.575 0 11.4
    endloop
  endfacet
  facet normal 0 0 1
    outer loop
      vertex -1.78465 0.986336 11.4
      vertex -1.62799 -0.504186 11.4
      vertex -1.62799 0.504186 11.4
    endloop
  endfacet
  facet normal 0 0 1
    outer loop
      vertex -1.78465 0.986336 11.4
      vertex -1.78465 -0.986336 11.4
      vertex -1.62799 -0.504186 11.4
    endloop
  endfacet
  facet normal 0 0 1
    outer loop
      vertex -2.03813 1.42538 11.4
      vertex -1.78465 -0.986336 11.4
      vertex -1.78465 0.986336 11.4
    endloop
  endfacet
  facet normal 0 0 1
    outer loop
      vertex -2.03813 1.42538 11.4
      vertex -2.03813 -1.42538 11.4
      vertex -1.78465 -0.986336 11.4
    endloop
  endfacet
  facet normal 0 0 1
    outer loop
      vertex -2.37736 1.80213 11.4
      vertex -2.03813 -1.42538 11.4
      vertex -2.03813 1.42538 11.4
    endloop
  endfacet
  facet normal 0 0 1
    outer loop
      vertex -2.37736 1.80213 11.4
      vertex -2.37736 -1.80213 11.4
      vertex -2.03813 -1.42538 11.4
    endloop
  endfacet
  facet normal 0 0 1
    outer loop
      vertex -2.7875 2.10011 11.4
      vertex -2.37736 -1.80213 11.4
      vertex -2.37736 1.80213 11.4
    endloop
  endfacet
  facet normal 0 0 1
    outer loop
      vertex -2.7875 2.10011 11.4
      vertex -2.7875 -2.10011 11.4
      vertex -2.37736 -1.80213 11.4
    endloop
  endfacet
  facet normal 0 0 1
    outer loop
      vertex -3.25063 2.30631 11.4
      vertex -2.7875 -2.10011 11.4
      vertex -2.7875 2.10011 11.4
    endloop
  endfacet
  facet normal 0 0 1
    outer loop
      vertex -3.25063 2.30631 11.4
      vertex -3.25063 -2.30631 11.4
      vertex -2.7875 -2.10011 11.4
    endloop
  endfacet
  facet normal 0 0 1
    outer loop
      vertex -3.74652 2.41172 11.4
      vertex -3.25063 -2.30631 11.4
      vertex -3.25063 2.30631 11.4
    endloop
  endfacet
  facet normal 0 0 1
    outer loop
      vertex -3.74652 2.41172 11.4
      vertex -3.74652 -2.41172 11.4
      vertex -3.25063 -2.30631 11.4
    endloop
  endfacet
  facet normal -0 0 1
    outer loop
      vertex -4.25348 2.41172 11.4
      vertex -3.74652 -2.41172 11.4
      vertex -3.74652 2.41172 11.4
    endloop
  endfacet
  facet normal 0 0 1
    outer loop
      vertex -4.25348 2.41172 11.4
      vertex -4.25348 -2.41172 11.4
      vertex -3.74652 -2.41172 11.4
    endloop
  endfacet
  facet normal -0 0 1
    outer loop
      vertex -4.74937 2.30631 11.4
      vertex -4.25348 -2.41172 11.4
      vertex -4.25348 2.41172 11.4
    endloop
  endfacet
  facet normal 0 0 1
    outer loop
      vertex -4.74937 2.30631 11.4
      vertex -4.74937 -2.30631 11.4
      vertex -4.25348 -2.41172 11.4
    endloop
  endfacet
  facet normal -0 0 1
    outer loop
      vertex -5.2125 2.10011 11.4
      vertex -4.74937 -2.30631 11.4
      vertex -4.74937 2.30631 11.4
    endloop
  endfacet
  facet normal 0 0 1
    outer loop
      vertex -5.2125 2.10011 11.4
      vertex -5.2125 -2.10011 11.4
      vertex -4.74937 -2.30631 11.4
    endloop
  endfacet
  facet normal -0 0 1
    outer loop
      vertex -5.62264 1.80213 11.4
      vertex -5.2125 -2.10011 11.4
      vertex -5.2125 2.10011 11.4
    endloop
  endfacet
  facet normal 0 0 1
    outer loop
      vertex -5.62264 1.80213 11.4
      vertex -5.62264 -1.80213 11.4
      vertex -5.2125 -2.10011 11.4
    endloop
  endfacet
  facet normal -0 0 1
    outer loop
      vertex -5.96187 1.42538 11.4
      vertex -5.62264 -1.80213 11.4
      vertex -5.62264 1.80213 11.4
    endloop
  endfacet
  facet normal 0 0 1
    outer loop
      vertex -5.96187 1.42538 11.4
      vertex -5.96187 -1.42538 11.4
      vertex -5.62264 -1.80213 11.4
    endloop
  endfacet
  facet normal -0 0 1
    outer loop
      vertex -6.21535 0.986336 11.4
      vertex -5.96187 -1.42538 11.4
      vertex -5.96187 1.42538 11.4
    endloop
  endfacet
  facet normal 0 0 1
    outer loop
      vertex -6.21535 0.986336 11.4
      vertex -6.21535 -0.986336 11.4
      vertex -5.96187 -1.42538 11.4
    endloop
  endfacet
  facet normal -0 0 1
    outer loop
      vertex -6.37201 0.504186 11.4
      vertex -6.21535 -0.986336 11.4
      vertex -6.21535 0.986336 11.4
    endloop
  endfacet
  facet normal 0 0 1
    outer loop
      vertex -6.37201 0.504186 11.4
      vertex -6.37201 -0.504186 11.4
      vertex -6.21535 -0.986336 11.4
    endloop
  endfacet
  facet normal 0 -0 1
    outer loop
      vertex -6.37201 -0.504186 11.4
      vertex -6.37201 0.504186 11.4
      vertex -6.425 0 11.4
    endloop
  endfacet
  facet normal -0.951057 0.309017 0
    outer loop
      vertex -6.37201 0.504186 9.6
      vertex -6.21535 0.986336 11.4
      vertex -6.21535 0.986336 9.6
    endloop
  endfacet
  facet normal -0.951057 0.309017 0
    outer loop
      vertex -6.21535 0.986336 11.4
      vertex -6.37201 0.504186 9.6
      vertex -6.37201 0.504186 11.4
    endloop
  endfacet
  facet normal -0.207912 -0.978147 0
    outer loop
      vertex -4.74937 -2.30631 9.6
      vertex -4.25348 -2.41172 11.4
      vertex -4.74937 -2.30631 11.4
    endloop
  endfacet
  facet normal -0.207912 -0.978147 -0
    outer loop
      vertex -4.25348 -2.41172 11.4
      vertex -4.74937 -2.30631 9.6
      vertex -4.25348 -2.41172 9.6
    endloop
  endfacet
  facet normal -0.994522 -0.104528 0
    outer loop
      vertex -6.37201 -0.504186 9.6
      vertex -6.425 0 11.4
      vertex -6.425 0 9.6
    endloop
  endfacet
  facet normal -0.994522 -0.104528 0
    outer loop
      vertex -6.425 0 11.4
      vertex -6.37201 -0.504186 9.6
      vertex -6.37201 -0.504186 11.4
    endloop
  endfacet
  facet normal 0.743146 -0.66913 0
    outer loop
      vertex -2.37736 -1.80213 11.4
      vertex -2.03813 -1.42538 9.6
      vertex -2.03813 -1.42538 11.4
    endloop
  endfacet
  facet normal 0.743146 -0.66913 0
    outer loop
      vertex -2.03813 -1.42538 9.6
      vertex -2.37736 -1.80213 11.4
      vertex -2.37736 -1.80213 9.6
    endloop
  endfacet
  facet normal 0.866025 -0.5 0
    outer loop
      vertex -2.03813 -1.42538 11.4
      vertex -1.78465 -0.986336 9.6
      vertex -1.78465 -0.986336 11.4
    endloop
  endfacet
  facet normal 0.866025 -0.5 0
    outer loop
      vertex -1.78465 -0.986336 9.6
      vertex -2.03813 -1.42538 11.4
      vertex -2.03813 -1.42538 9.6
    endloop
  endfacet
  facet normal -0.587785 -0.809017 0
    outer loop
      vertex -5.62264 -1.80213 9.6
      vertex -5.2125 -2.10011 11.4
      vertex -5.62264 -1.80213 11.4
    endloop
  endfacet
  facet normal -0.587785 -0.809017 -0
    outer loop
      vertex -5.2125 -2.10011 11.4
      vertex -5.62264 -1.80213 9.6
      vertex -5.2125 -2.10011 9.6
    endloop
  endfacet
  facet normal 0 -1 0
    outer loop
      vertex -4.25348 -2.41172 9.6
      vertex -3.74652 -2.41172 11.4
      vertex -4.25348 -2.41172 11.4
    endloop
  endfacet
  facet normal 0 -1 -0
    outer loop
      vertex -3.74652 -2.41172 11.4
      vertex -4.25348 -2.41172 9.6
      vertex -3.74652 -2.41172 9.6
    endloop
  endfacet
  facet normal -0.406737 -0.913545 0
    outer loop
      vertex -5.2125 -2.10011 9.6
      vertex -4.74937 -2.30631 11.4
      vertex -5.2125 -2.10011 11.4
    endloop
  endfacet
  facet normal -0.406737 -0.913545 -0
    outer loop
      vertex -4.74937 -2.30631 11.4
      vertex -5.2125 -2.10011 9.6
      vertex -4.74937 -2.30631 9.6
    endloop
  endfacet
  facet normal -0.951057 -0.309017 0
    outer loop
      vertex -6.21535 -0.986336 9.6
      vertex -6.37201 -0.504186 11.4
      vertex -6.37201 -0.504186 9.6
    endloop
  endfacet
  facet normal -0.951057 -0.309017 0
    outer loop
      vertex -6.37201 -0.504186 11.4
      vertex -6.21535 -0.986336 9.6
      vertex -6.21535 -0.986336 11.4
    endloop
  endfacet
  facet normal -0.743146 -0.66913 0
    outer loop
      vertex -5.62264 -1.80213 9.6
      vertex -5.96187 -1.42538 11.4
      vertex -5.96187 -1.42538 9.6
    endloop
  endfacet
  facet normal -0.743146 -0.66913 0
    outer loop
      vertex -5.96187 -1.42538 11.4
      vertex -5.62264 -1.80213 9.6
      vertex -5.62264 -1.80213 11.4
    endloop
  endfacet
  facet normal -0.866025 -0.5 0
    outer loop
      vertex -5.96187 -1.42538 9.6
      vertex -6.21535 -0.986336 11.4
      vertex -6.21535 -0.986336 9.6
    endloop
  endfacet
  facet normal -0.866025 -0.5 0
    outer loop
      vertex -6.21535 -0.986336 11.4
      vertex -5.96187 -1.42538 9.6
      vertex -5.96187 -1.42538 11.4
    endloop
  endfacet
  facet normal 0.406737 -0.913545 0
    outer loop
      vertex -3.25063 -2.30631 9.6
      vertex -2.7875 -2.10011 11.4
      vertex -3.25063 -2.30631 11.4
    endloop
  endfacet
  facet normal 0.406737 -0.913545 0
    outer loop
      vertex -2.7875 -2.10011 11.4
      vertex -3.25063 -2.30631 9.6
      vertex -2.7875 -2.10011 9.6
    endloop
  endfacet
  facet normal 0.994522 0.104528 0
    outer loop
      vertex 6.425 0 11.4
      vertex 6.37201 0.504186 9.6
      vertex 6.37201 0.504186 11.4
    endloop
  endfacet
  facet normal 0.994522 0.104528 0
    outer loop
      vertex 6.37201 0.504186 9.6
      vertex 6.425 0 11.4
      vertex 6.425 0 9.6
    endloop
  endfacet
  facet normal -0.994522 0.104528 0
    outer loop
      vertex 1.575 0 9.6
      vertex 1.62799 0.504186 11.4
      vertex 1.62799 0.504186 9.6
    endloop
  endfacet
  facet normal -0.994522 0.104528 0
    outer loop
      vertex 1.62799 0.504186 11.4
      vertex 1.575 0 9.6
      vertex 1.575 0 11.4
    endloop
  endfacet
  facet normal 0 1 -0
    outer loop
      vertex 4.25348 2.41172 9.6
      vertex 3.74652 2.41172 11.4
      vertex 4.25348 2.41172 11.4
    endloop
  endfacet
  facet normal 0 1 0
    outer loop
      vertex 3.74652 2.41172 11.4
      vertex 4.25348 2.41172 9.6
      vertex 3.74652 2.41172 9.6
    endloop
  endfacet
  facet normal 0 -1 0
    outer loop
      vertex 3.74652 -2.41172 9.6
      vertex 4.25348 -2.41172 11.4
      vertex 3.74652 -2.41172 11.4
    endloop
  endfacet
  facet normal 0 -1 -0
    outer loop
      vertex 4.25348 -2.41172 11.4
      vertex 3.74652 -2.41172 9.6
      vertex 4.25348 -2.41172 9.6
    endloop
  endfacet
  facet normal 0.743146 0.66913 0
    outer loop
      vertex 5.96187 1.42538 11.4
      vertex 5.62264 1.80213 9.6
      vertex 5.62264 1.80213 11.4
    endloop
  endfacet
  facet normal 0.743146 0.66913 0
    outer loop
      vertex 5.62264 1.80213 9.6
      vertex 5.96187 1.42538 11.4
      vertex 5.96187 1.42538 9.6
    endloop
  endfacet
  facet normal 0.951057 0.309017 0
    outer loop
      vertex 6.37201 0.504186 11.4
      vertex 6.21535 0.986336 9.6
      vertex 6.21535 0.986336 11.4
    endloop
  endfacet
  facet normal 0.951057 0.309017 0
    outer loop
      vertex 6.21535 0.986336 9.6
      vertex 6.37201 0.504186 11.4
      vertex 6.37201 0.504186 9.6
    endloop
  endfacet
  facet normal -0.587785 0.809017 0
    outer loop
      vertex 2.7875 2.10011 9.6
      vertex 2.37736 1.80213 11.4
      vertex 2.7875 2.10011 11.4
    endloop
  endfacet
  facet normal -0.587785 0.809017 0
    outer loop
      vertex 2.37736 1.80213 11.4
      vertex 2.7875 2.10011 9.6
      vertex 2.37736 1.80213 9.6
    endloop
  endfacet
  facet normal -0.207912 0.978147 0
    outer loop
      vertex 3.74652 2.41172 9.6
      vertex 3.25063 2.30631 11.4
      vertex 3.74652 2.41172 11.4
    endloop
  endfacet
  facet normal -0.207912 0.978147 0
    outer loop
      vertex 3.25063 2.30631 11.4
      vertex 3.74652 2.41172 9.6
      vertex 3.25063 2.30631 9.6
    endloop
  endfacet
  facet normal 0.866025 -0.5 0
    outer loop
      vertex 5.96187 -1.42538 11.4
      vertex 6.21535 -0.986336 9.6
      vertex 6.21535 -0.986336 11.4
    endloop
  endfacet
  facet normal 0.866025 -0.5 0
    outer loop
      vertex 6.21535 -0.986336 9.6
      vertex 5.96187 -1.42538 11.4
      vertex 5.96187 -1.42538 9.6
    endloop
  endfacet
  facet normal 0.866025 0.5 0
    outer loop
      vertex 6.21535 0.986336 11.4
      vertex 5.96187 1.42538 9.6
      vertex 5.96187 1.42538 11.4
    endloop
  endfacet
  facet normal 0.866025 0.5 0
    outer loop
      vertex 5.96187 1.42538 9.6
      vertex 6.21535 0.986336 11.4
      vertex 6.21535 0.986336 9.6
    endloop
  endfacet
  facet normal 0.406737 0.913545 -0
    outer loop
      vertex 5.2125 2.10011 9.6
      vertex 4.74937 2.30631 11.4
      vertex 5.2125 2.10011 11.4
    endloop
  endfacet
  facet normal 0.406737 0.913545 0
    outer loop
      vertex 4.74937 2.30631 11.4
      vertex 5.2125 2.10011 9.6
      vertex 4.74937 2.30631 9.6
    endloop
  endfacet
  facet normal 0.207912 0.978147 -0
    outer loop
      vertex 4.74937 2.30631 9.6
      vertex 4.25348 2.41172 11.4
      vertex 4.74937 2.30631 11.4
    endloop
  endfacet
  facet normal 0.207912 0.978147 0
    outer loop
      vertex 4.25348 2.41172 11.4
      vertex 4.74937 2.30631 9.6
      vertex 4.25348 2.41172 9.6
    endloop
  endfacet
  facet normal 0.587785 0.809017 -0
    outer loop
      vertex 5.62264 1.80213 9.6
      vertex 5.2125 2.10011 11.4
      vertex 5.62264 1.80213 11.4
    endloop
  endfacet
  facet normal 0.587785 0.809017 0
    outer loop
      vertex 5.2125 2.10011 11.4
      vertex 5.62264 1.80213 9.6
      vertex 5.2125 2.10011 9.6
    endloop
  endfacet
  facet normal -0.866025 0.5 0
    outer loop
      vertex 1.78465 0.986336 9.6
      vertex 2.03813 1.42538 11.4
      vertex 2.03813 1.42538 9.6
    endloop
  endfacet
  facet normal -0.866025 0.5 0
    outer loop
      vertex 2.03813 1.42538 11.4
      vertex 1.78465 0.986336 9.6
      vertex 1.78465 0.986336 11.4
    endloop
  endfacet
  facet normal -0.743146 0.66913 0
    outer loop
      vertex 2.03813 1.42538 9.6
      vertex 2.37736 1.80213 11.4
      vertex 2.37736 1.80213 9.6
    endloop
  endfacet
  facet normal -0.743146 0.66913 0
    outer loop
      vertex 2.37736 1.80213 11.4
      vertex 2.03813 1.42538 9.6
      vertex 2.03813 1.42538 11.4
    endloop
  endfacet
  facet normal -0.951057 0.309017 0
    outer loop
      vertex 1.62799 0.504186 9.6
      vertex 1.78465 0.986336 11.4
      vertex 1.78465 0.986336 9.6
    endloop
  endfacet
  facet normal -0.951057 0.309017 0
    outer loop
      vertex 1.78465 0.986336 11.4
      vertex 1.62799 0.504186 9.6
      vertex 1.62799 0.504186 11.4
    endloop
  endfacet
  facet normal 0 0 1
    outer loop
      vertex 6.37201 0.504186 11.4
      vertex 6.37201 -0.504186 11.4
      vertex 6.425 0 11.4
    endloop
  endfacet
  facet normal 0 0 1
    outer loop
      vertex 6.21535 0.986336 11.4
      vertex 6.37201 -0.504186 11.4
      vertex 6.37201 0.504186 11.4
    endloop
  endfacet
  facet normal 0 0 1
    outer loop
      vertex 6.21535 0.986336 11.4
      vertex 6.21535 -0.986336 11.4
      vertex 6.37201 -0.504186 11.4
    endloop
  endfacet
  facet normal 0 0 1
    outer loop
      vertex 5.96187 1.42538 11.4
      vertex 6.21535 -0.986336 11.4
      vertex 6.21535 0.986336 11.4
    endloop
  endfacet
  facet normal 0 0 1
    outer loop
      vertex 5.96187 1.42538 11.4
      vertex 5.96187 -1.42538 11.4
      vertex 6.21535 -0.986336 11.4
    endloop
  endfacet
  facet normal 0 0 1
    outer loop
      vertex 5.62264 1.80213 11.4
      vertex 5.96187 -1.42538 11.4
      vertex 5.96187 1.42538 11.4
    endloop
  endfacet
  facet normal 0 0 1
    outer loop
      vertex 5.62264 1.80213 11.4
      vertex 5.62264 -1.80213 11.4
      vertex 5.96187 -1.42538 11.4
    endloop
  endfacet
  facet normal 0 0 1
    outer loop
      vertex 5.2125 2.10011 11.4
      vertex 5.62264 -1.80213 11.4
      vertex 5.62264 1.80213 11.4
    endloop
  endfacet
  facet normal 0 0 1
    outer loop
      vertex 5.2125 2.10011 11.4
      vertex 5.2125 -2.10011 11.4
      vertex 5.62264 -1.80213 11.4
    endloop
  endfacet
  facet normal 0 0 1
    outer loop
      vertex 4.74937 2.30631 11.4
      vertex 5.2125 -2.10011 11.4
      vertex 5.2125 2.10011 11.4
    endloop
  endfacet
  facet normal 0 0 1
    outer loop
      vertex 4.74937 2.30631 11.4
      vertex 4.74937 -2.30631 11.4
      vertex 5.2125 -2.10011 11.4
    endloop
  endfacet
  facet normal 0 0 1
    outer loop
      vertex 4.25348 2.41172 11.4
      vertex 4.74937 -2.30631 11.4
      vertex 4.74937 2.30631 11.4
    endloop
  endfacet
  facet normal 0 0 1
    outer loop
      vertex 4.25348 2.41172 11.4
      vertex 4.25348 -2.41172 11.4
      vertex 4.74937 -2.30631 11.4
    endloop
  endfacet
  facet normal -0 0 1
    outer loop
      vertex 3.74652 2.41172 11.4
      vertex 4.25348 -2.41172 11.4
      vertex 4.25348 2.41172 11.4
    endloop
  endfacet
  facet normal 0 0 1
    outer loop
      vertex 3.74652 2.41172 11.4
      vertex 3.74652 -2.41172 11.4
      vertex 4.25348 -2.41172 11.4
    endloop
  endfacet
  facet normal -0 0 1
    outer loop
      vertex 3.25063 2.30631 11.4
      vertex 3.74652 -2.41172 11.4
      vertex 3.74652 2.41172 11.4
    endloop
  endfacet
  facet normal 0 0 1
    outer loop
      vertex 3.25063 2.30631 11.4
      vertex 3.25063 -2.30631 11.4
      vertex 3.74652 -2.41172 11.4
    endloop
  endfacet
  facet normal -0 0 1
    outer loop
      vertex 2.7875 2.10011 11.4
      vertex 3.25063 -2.30631 11.4
      vertex 3.25063 2.30631 11.4
    endloop
  endfacet
  facet normal 0 0 1
    outer loop
      vertex 2.7875 2.10011 11.4
      vertex 2.7875 -2.10011 11.4
      vertex 3.25063 -2.30631 11.4
    endloop
  endfacet
  facet normal -0 0 1
    outer loop
      vertex 2.37736 1.80213 11.4
      vertex 2.7875 -2.10011 11.4
      vertex 2.7875 2.10011 11.4
    endloop
  endfacet
  facet normal 0 0 1
    outer loop
      vertex 2.37736 1.80213 11.4
      vertex 2.37736 -1.80213 11.4
      vertex 2.7875 -2.10011 11.4
    endloop
  endfacet
  facet normal -0 0 1
    outer loop
      vertex 2.03813 1.42538 11.4
      vertex 2.37736 -1.80213 11.4
      vertex 2.37736 1.80213 11.4
    endloop
  endfacet
  facet normal 0 0 1
    outer loop
      vertex 2.03813 1.42538 11.4
      vertex 2.03813 -1.42538 11.4
      vertex 2.37736 -1.80213 11.4
    endloop
  endfacet
  facet normal -0 0 1
    outer loop
      vertex 1.78465 0.986336 11.4
      vertex 2.03813 -1.42538 11.4
      vertex 2.03813 1.42538 11.4
    endloop
  endfacet
  facet normal 0 0 1
    outer loop
      vertex 1.78465 0.986336 11.4
      vertex 1.78465 -0.986336 11.4
      vertex 2.03813 -1.42538 11.4
    endloop
  endfacet
  facet normal -0 0 1
    outer loop
      vertex 1.62799 0.504186 11.4
      vertex 1.78465 -0.986336 11.4
      vertex 1.78465 0.986336 11.4
    endloop
  endfacet
  facet normal 0 0 1
    outer loop
      vertex 1.62799 0.504186 11.4
      vertex 1.62799 -0.504186 11.4
      vertex 1.78465 -0.986336 11.4
    endloop
  endfacet
  facet normal 0 -0 1
    outer loop
      vertex 1.62799 -0.504186 11.4
      vertex 1.62799 0.504186 11.4
      vertex 1.575 0 11.4
    endloop
  endfacet
  facet normal -0.406737 0.913545 0
    outer loop
      vertex 3.25063 2.30631 9.6
      vertex 2.7875 2.10011 11.4
      vertex 3.25063 2.30631 11.4
    endloop
  endfacet
  facet normal -0.406737 0.913545 0
    outer loop
      vertex 2.7875 2.10011 11.4
      vertex 3.25063 2.30631 9.6
      vertex 2.7875 2.10011 9.6
    endloop
  endfacet
  facet normal 0.994522 -0.104528 0
    outer loop
      vertex 6.37201 -0.504186 11.4
      vertex 6.425 0 9.6
      vertex 6.425 0 11.4
    endloop
  endfacet
  facet normal 0.994522 -0.104528 0
    outer loop
      vertex 6.425 0 9.6
      vertex 6.37201 -0.504186 11.4
      vertex 6.37201 -0.504186 9.6
    endloop
  endfacet
  facet normal 0.587785 -0.809017 0
    outer loop
      vertex 5.2125 -2.10011 9.6
      vertex 5.62264 -1.80213 11.4
      vertex 5.2125 -2.10011 11.4
    endloop
  endfacet
  facet normal 0.587785 -0.809017 0
    outer loop
      vertex 5.62264 -1.80213 11.4
      vertex 5.2125 -2.10011 9.6
      vertex 5.62264 -1.80213 9.6
    endloop
  endfacet
  facet normal 0.743146 -0.66913 0
    outer loop
      vertex 5.62264 -1.80213 11.4
      vertex 5.96187 -1.42538 9.6
      vertex 5.96187 -1.42538 11.4
    endloop
  endfacet
  facet normal 0.743146 -0.66913 0
    outer loop
      vertex 5.96187 -1.42538 9.6
      vertex 5.62264 -1.80213 11.4
      vertex 5.62264 -1.80213 9.6
    endloop
  endfacet
  facet normal 0.951057 -0.309017 0
    outer loop
      vertex 6.21535 -0.986336 11.4
      vertex 6.37201 -0.504186 9.6
      vertex 6.37201 -0.504186 11.4
    endloop
  endfacet
  facet normal 0.951057 -0.309017 0
    outer loop
      vertex 6.37201 -0.504186 9.6
      vertex 6.21535 -0.986336 11.4
      vertex 6.21535 -0.986336 9.6
    endloop
  endfacet
  facet normal -0.406737 -0.913545 0
    outer loop
      vertex 2.7875 -2.10011 9.6
      vertex 3.25063 -2.30631 11.4
      vertex 2.7875 -2.10011 11.4
    endloop
  endfacet
  facet normal -0.406737 -0.913545 -0
    outer loop
      vertex 3.25063 -2.30631 11.4
      vertex 2.7875 -2.10011 9.6
      vertex 3.25063 -2.30631 9.6
    endloop
  endfacet
  facet normal -0.866025 -0.5 0
    outer loop
      vertex 2.03813 -1.42538 9.6
      vertex 1.78465 -0.986336 11.4
      vertex 1.78465 -0.986336 9.6
    endloop
  endfacet
  facet normal -0.866025 -0.5 0
    outer loop
      vertex 1.78465 -0.986336 11.4
      vertex 2.03813 -1.42538 9.6
      vertex 2.03813 -1.42538 11.4
    endloop
  endfacet
  facet normal -0.994522 -0.104528 0
    outer loop
      vertex 1.62799 -0.504186 9.6
      vertex 1.575 0 11.4
      vertex 1.575 0 9.6
    endloop
  endfacet
  facet normal -0.994522 -0.104528 0
    outer loop
      vertex 1.575 0 11.4
      vertex 1.62799 -0.504186 9.6
      vertex 1.62799 -0.504186 11.4
    endloop
  endfacet
  facet normal 0.207912 -0.978147 0
    outer loop
      vertex 4.25348 -2.41172 9.6
      vertex 4.74937 -2.30631 11.4
      vertex 4.25348 -2.41172 11.4
    endloop
  endfacet
  facet normal 0.207912 -0.978147 0
    outer loop
      vertex 4.74937 -2.30631 11.4
      vertex 4.25348 -2.41172 9.6
      vertex 4.74937 -2.30631 9.6
    endloop
  endfacet
  facet normal -0.207912 -0.978147 0
    outer loop
      vertex 3.25063 -2.30631 9.6
      vertex 3.74652 -2.41172 11.4
      vertex 3.25063 -2.30631 11.4
    endloop
  endfacet
  facet normal -0.207912 -0.978147 -0
    outer loop
      vertex 3.74652 -2.41172 11.4
      vertex 3.25063 -2.30631 9.6
      vertex 3.74652 -2.41172 9.6
    endloop
  endfacet
  facet normal -0.587785 -0.809017 0
    outer loop
      vertex 2.37736 -1.80213 9.6
      vertex 2.7875 -2.10011 11.4
      vertex 2.37736 -1.80213 11.4
    endloop
  endfacet
  facet normal -0.587785 -0.809017 -0
    outer loop
      vertex 2.7875 -2.10011 11.4
      vertex 2.37736 -1.80213 9.6
      vertex 2.7875 -2.10011 9.6
    endloop
  endfacet
  facet normal -0.743146 -0.66913 0
    outer loop
      vertex 2.37736 -1.80213 9.6
      vertex 2.03813 -1.42538 11.4
      vertex 2.03813 -1.42538 9.6
    endloop
  endfacet
  facet normal -0.743146 -0.66913 0
    outer loop
      vertex 2.03813 -1.42538 11.4
      vertex 2.37736 -1.80213 9.6
      vertex 2.37736 -1.80213 11.4
    endloop
  endfacet
  facet normal -0.951057 -0.309017 0
    outer loop
      vertex 1.78465 -0.986336 9.6
      vertex 1.62799 -0.504186 11.4
      vertex 1.62799 -0.504186 9.6
    endloop
  endfacet
  facet normal -0.951057 -0.309017 0
    outer loop
      vertex 1.62799 -0.504186 11.4
      vertex 1.78465 -0.986336 9.6
      vertex 1.78465 -0.986336 11.4
    endloop
  endfacet
  facet normal 0.406737 -0.913545 0
    outer loop
      vertex 4.74937 -2.30631 9.6
      vertex 5.2125 -2.10011 11.4
      vertex 4.74937 -2.30631 11.4
    endloop
  endfacet
  facet normal 0.406737 -0.913545 0
    outer loop
      vertex 5.2125 -2.10011 11.4
      vertex 4.74937 -2.30631 9.6
      vertex 5.2125 -2.10011 9.6
    endloop
  endfacet
  facet normal -1 0 0
    outer loop
      vertex -4.35 -2.45 0
      vertex -4.35 -2.2 8.6
      vertex -4.35 -2.2 0
    endloop
  endfacet
  facet normal -1 -0 0
    outer loop
      vertex -4.35 -2.2 8.6
      vertex -4.35 -2.45 0
      vertex -4.35 -2.45 8.6
    endloop
  endfacet
  facet normal 1 -0 0
    outer loop
      vertex -3.65 -2.45 8.6
      vertex -3.65 -2.2 0
      vertex -3.65 -2.2 8.6
    endloop
  endfacet
  facet normal 1 0 0
    outer loop
      vertex -3.65 -2.2 0
      vertex -3.65 -2.45 8.6
      vertex -3.65 -2.45 0
    endloop
  endfacet
  facet normal 0 1 -0
    outer loop
      vertex -3.65 -2.2 0
      vertex -4.35 -2.2 8.6
      vertex -3.65 -2.2 8.6
    endloop
  endfacet
  facet normal 0 1 0
    outer loop
      vertex -4.35 -2.2 8.6
      vertex -3.65 -2.2 0
      vertex -4.35 -2.2 0
    endloop
  endfacet
  facet normal -1 0 0
    outer loop
      vertex -4.35 2.2 0
      vertex -4.35 2.45 8.6
      vertex -4.35 2.45 0
    endloop
  endfacet
  facet normal -1 -0 0
    outer loop
      vertex -4.35 2.45 8.6
      vertex -4.35 2.2 0
      vertex -4.35 2.2 8.6
    endloop
  endfacet
  facet normal 1 -0 0
    outer loop
      vertex -3.65 2.2 8.6
      vertex -3.65 2.45 0
      vertex -3.65 2.45 8.6
    endloop
  endfacet
  facet normal 1 0 0
    outer loop
      vertex -3.65 2.45 0
      vertex -3.65 2.2 8.6
      vertex -3.65 2.2 0
    endloop
  endfacet
  facet normal 0 -1 0
    outer loop
      vertex -4.35 2.2 0
      vertex -3.65 2.2 8.6
      vertex -4.35 2.2 8.6
    endloop
  endfacet
  facet normal 0 -1 -0
    outer loop
      vertex -3.65 2.2 8.6
      vertex -4.35 2.2 0
      vertex -3.65 2.2 0
    endloop
  endfacet
  facet normal -1 0 0
    outer loop
      vertex 3.65 -2.45 0
      vertex 3.65 -2.2 8.6
      vertex 3.65 -2.2 0
    endloop
  endfacet
  facet normal -1 -0 0
    outer loop
      vertex 3.65 -2.2 8.6
      vertex 3.65 -2.45 0
      vertex 3.65 -2.45 8.6
    endloop
  endfacet
  facet normal 1 -0 0
    outer loop
      vertex 4.35 -2.45 8.6
      vertex 4.35 -2.2 0
      vertex 4.35 -2.2 8.6
    endloop
  endfacet
  facet normal 1 0 0
    outer loop
      vertex 4.35 -2.2 0
      vertex 4.35 -2.45 8.6
      vertex 4.35 -2.45 0
    endloop
  endfacet
  facet normal 0 1 -0
    outer loop
      vertex 4.35 -2.2 0
      vertex 3.65 -2.2 8.6
      vertex 4.35 -2.2 8.6
    endloop
  endfacet
  facet normal 0 1 0
    outer loop
      vertex 3.65 -2.2 8.6
      vertex 4.35 -2.2 0
      vertex 3.65 -2.2 0
    endloop
  endfacet
  facet normal -1 0 0
    outer loop
      vertex 3.65 2.2 0
      vertex 3.65 2.45 8.6
      vertex 3.65 2.45 0
    endloop
  endfacet
  facet normal -1 -0 0
    outer loop
      vertex 3.65 2.45 8.6
      vertex 3.65 2.2 0
      vertex 3.65 2.2 8.6
    endloop
  endfacet
  facet normal 1 -0 0
    outer loop
      vertex 4.35 2.2 8.6
      vertex 4.35 2.45 0
      vertex 4.35 2.45 8.6
    endloop
  endfacet
  facet normal 1 0 0
    outer loop
      vertex 4.35 2.45 0
      vertex 4.35 2.2 8.6
      vertex 4.35 2.2 0
    endloop
  endfacet
  facet normal 0 -1 0
    outer loop
      vertex 3.65 2.2 0
      vertex 4.35 2.2 8.6
      vertex 3.65 2.2 8.6
    endloop
  endfacet
  facet normal 0 -1 -0
    outer loop
      vertex 4.35 2.2 8.6
      vertex 3.65 2.2 0
      vertex 4.35 2.2 0
    endloop
  endfacet
  facet normal 1 -0 0
    outer loop
      vertex -6.2 -0.35 8.6
      vertex -6.2 0.35 0
      vertex -6.2 0.35 8.6
    endloop
  endfacet
  facet normal 1 0 0
    outer loop
      vertex -6.2 0.35 0
      vertex -6.2 -0.35 8.6
      vertex -6.2 -0.35 0
    endloop
  endfacet
  facet normal 0 1 -0
    outer loop
      vertex -6.2 0.35 0
      vertex -6.45 0.35 8.6
      vertex -6.2 0.35 8.6
    endloop
  endfacet
  facet normal 0 1 0
    outer loop
      vertex -6.45 0.35 8.6
      vertex -6.2 0.35 0
      vertex -6.45 0.35 0
    endloop
  endfacet
  facet normal 0 -1 0
    outer loop
      vertex -6.45 -0.35 0
      vertex -6.2 -0.35 8.6
      vertex -6.45 -0.35 8.6
    endloop
  endfacet
  facet normal 0 -1 -0
    outer loop
      vertex -6.2 -0.35 8.6
      vertex -6.45 -0.35 0
      vertex -6.2 -0.35 0
    endloop
  endfacet
  facet normal -1 0 0
    outer loop
      vertex 6.2 -0.35 0
      vertex 6.2 0.35 8.6
      vertex 6.2 0.35 0
    endloop
  endfacet
  facet normal -1 -0 0
    outer loop
      vertex 6.2 0.35 8.6
      vertex 6.2 -0.35 0
      vertex 6.2 -0.35 8.6
    endloop
  endfacet
  facet normal 0 1 -0
    outer loop
      vertex 6.45 0.35 0
      vertex 6.2 0.35 8.6
      vertex 6.45 0.35 8.6
    endloop
  endfacet
  facet normal 0 1 0
    outer loop
      vertex 6.2 0.35 8.6
      vertex 6.45 0.35 0
      vertex 6.2 0.35 0
    endloop
  endfacet
  facet normal 0 -1 0
    outer loop
      vertex 6.2 -0.35 0
      vertex 6.45 -0.35 8.6
      vertex 6.2 -0.35 8.6
    endloop
  endfacet
  facet normal 0 -1 -0
    outer loop
      vertex 6.45 -0.35 8.6
      vertex 6.2 -0.35 0
      vertex 6.45 -0.35 0
    endloop
  endfacet
  facet normal 0.994522 0.104529 0
    outer loop
      vertex 1.5 -3.8147e-07 8.6
      vertex 1.46722 0.311867 0
      vertex 1.46722 0.311867 8.6
    endloop
  endfacet
  facet normal 0.994522 0.104529 0
    outer loop
      vertex 1.46722 0.311867 0
      vertex 1.5 -3.8147e-07 8.6
      vertex 1.5 -3.8147e-07 0
    endloop
  endfacet
  facet normal -0.994522 0.104529 0
    outer loop
      vertex -1.5 -3.8147e-07 0
      vertex -1.46722 0.311867 8.6
      vertex -1.46722 0.311867 0
    endloop
  endfacet
  facet normal -0.994522 0.104529 0
    outer loop
      vertex -1.46722 0.311867 8.6
      vertex -1.5 -3.8147e-07 0
      vertex -1.5 -3.8147e-07 8.6
    endloop
  endfacet
  facet normal 0 1 -0
    outer loop
      vertex 0.156792 1.49178 0
      vertex -0.156793 1.49178 8.6
      vertex 0.156792 1.49178 8.6
    endloop
  endfacet
  facet normal 0 1 0
    outer loop
      vertex -0.156793 1.49178 8.6
      vertex 0.156792 1.49178 0
      vertex -0.156793 1.49178 0
    endloop
  endfacet
  facet normal 0 -1 0
    outer loop
      vertex -0.156793 -1.49178 0
      vertex 0.156792 -1.49178 8.6
      vertex -0.156793 -1.49178 8.6
    endloop
  endfacet
  facet normal 0 -1 -0
    outer loop
      vertex 0.156792 -1.49178 8.6
      vertex -0.156793 -1.49178 0
      vertex 0.156792 -1.49178 0
    endloop
  endfacet
  facet normal 0.743144 0.669131 0
    outer loop
      vertex 1.21353 0.881677 8.6
      vertex 1.0037 1.11472 0
      vertex 1.0037 1.11472 8.6
    endloop
  endfacet
  facet normal 0.743144 0.669131 0
    outer loop
      vertex 1.0037 1.11472 0
      vertex 1.21353 0.881677 8.6
      vertex 1.21353 0.881677 0
    endloop
  endfacet
  facet normal -0.587784 0.809018 0
    outer loop
      vertex -0.75 1.29904 0
      vertex -1.0037 1.11472 8.6
      vertex -0.75 1.29904 8.6
    endloop
  endfacet
  facet normal -0.587784 0.809018 0
    outer loop
      vertex -1.0037 1.11472 8.6
      vertex -0.75 1.29904 0
      vertex -1.0037 1.11472 0
    endloop
  endfacet
  facet normal -0.406736 0.913546 0
    outer loop
      vertex -0.463526 1.42658 0
      vertex -0.75 1.29904 8.6
      vertex -0.463526 1.42658 8.6
    endloop
  endfacet
  facet normal -0.406736 0.913546 0
    outer loop
      vertex -0.75 1.29904 8.6
      vertex -0.463526 1.42658 0
      vertex -0.75 1.29904 0
    endloop
  endfacet
  facet normal 0.866025 -0.500001 0
    outer loop
      vertex 1.21353 -0.881678 8.6
      vertex 1.37032 -0.610106 0
      vertex 1.37032 -0.610106 8.6
    endloop
  endfacet
  facet normal 0.866025 -0.500001 0
    outer loop
      vertex 1.37032 -0.610106 0
      vertex 1.21353 -0.881678 8.6
      vertex 1.21353 -0.881678 0
    endloop
  endfacet
  facet normal 0.866026 0.5 0
    outer loop
      vertex 1.37032 0.610104 8.6
      vertex 1.21353 0.881677 0
      vertex 1.21353 0.881677 8.6
    endloop
  endfacet
  facet normal 0.866026 0.5 0
    outer loop
      vertex 1.21353 0.881677 0
      vertex 1.37032 0.610104 8.6
      vertex 1.37032 0.610104 0
    endloop
  endfacet
  facet normal 0.951057 0.309016 0
    outer loop
      vertex 1.46722 0.311867 8.6
      vertex 1.37032 0.610104 0
      vertex 1.37032 0.610104 8.6
    endloop
  endfacet
  facet normal 0.951057 0.309016 0
    outer loop
      vertex 1.37032 0.610104 0
      vertex 1.46722 0.311867 8.6
      vertex 1.46722 0.311867 0
    endloop
  endfacet
  facet normal 0.406736 0.913546 -0
    outer loop
      vertex 0.75 1.29904 0
      vertex 0.463525 1.42658 8.6
      vertex 0.75 1.29904 8.6
    endloop
  endfacet
  facet normal 0.406736 0.913546 0
    outer loop
      vertex 0.463525 1.42658 8.6
      vertex 0.75 1.29904 0
      vertex 0.463525 1.42658 0
    endloop
  endfacet
  facet normal 0.207914 0.978147 -0
    outer loop
      vertex 0.463525 1.42658 0
      vertex 0.156792 1.49178 8.6
      vertex 0.463525 1.42658 8.6
    endloop
  endfacet
  facet normal 0.207914 0.978147 0
    outer loop
      vertex 0.156792 1.49178 8.6
      vertex 0.463525 1.42658 0
      vertex 0.156792 1.49178 0
    endloop
  endfacet
  facet normal 0.587785 0.809017 -0
    outer loop
      vertex 1.0037 1.11472 0
      vertex 0.75 1.29904 8.6
      vertex 1.0037 1.11472 8.6
    endloop
  endfacet
  facet normal 0.587785 0.809017 0
    outer loop
      vertex 0.75 1.29904 8.6
      vertex 1.0037 1.11472 0
      vertex 0.75 1.29904 0
    endloop
  endfacet
  facet normal -0.866026 0.5 0
    outer loop
      vertex -1.37032 0.610104 0
      vertex -1.21353 0.881677 8.6
      vertex -1.21353 0.881677 0
    endloop
  endfacet
  facet normal -0.866026 0.5 0
    outer loop
      vertex -1.21353 0.881677 8.6
      vertex -1.37032 0.610104 0
      vertex -1.37032 0.610104 8.6
    endloop
  endfacet
  facet normal -0.743146 0.669129 0
    outer loop
      vertex -1.21353 0.881677 0
      vertex -1.0037 1.11472 8.6
      vertex -1.0037 1.11472 0
    endloop
  endfacet
  facet normal -0.743146 0.669129 0
    outer loop
      vertex -1.0037 1.11472 8.6
      vertex -1.21353 0.881677 0
      vertex -1.21353 0.881677 8.6
    endloop
  endfacet
  facet normal -0.951057 0.309016 0
    outer loop
      vertex -1.46722 0.311867 0
      vertex -1.37032 0.610104 8.6
      vertex -1.37032 0.610104 0
    endloop
  endfacet
  facet normal -0.951057 0.309016 0
    outer loop
      vertex -1.37032 0.610104 8.6
      vertex -1.46722 0.311867 0
      vertex -1.46722 0.311867 8.6
    endloop
  endfacet
  facet normal -0.207914 0.978147 0
    outer loop
      vertex -0.156793 1.49178 0
      vertex -0.463526 1.42658 8.6
      vertex -0.156793 1.49178 8.6
    endloop
  endfacet
  facet normal -0.207914 0.978147 0
    outer loop
      vertex -0.463526 1.42658 8.6
      vertex -0.156793 1.49178 0
      vertex -0.463526 1.42658 0
    endloop
  endfacet
  facet normal 0.994522 -0.104529 0
    outer loop
      vertex 1.46722 -0.311868 8.6
      vertex 1.5 -3.8147e-07 0
      vertex 1.5 -3.8147e-07 8.6
    endloop
  endfacet
  facet normal 0.994522 -0.104529 0
    outer loop
      vertex 1.5 -3.8147e-07 0
      vertex 1.46722 -0.311868 8.6
      vertex 1.46722 -0.311868 0
    endloop
  endfacet
  facet normal 0 0 -1
    outer loop
      vertex 1.46722 -0.311868 0
      vertex 1.46722 0.311867 0
      vertex 1.5 -3.8147e-07 0
    endloop
  endfacet
  facet normal 0 0 -1
    outer loop
      vertex 1.37032 -0.610106 0
      vertex 1.46722 0.311867 0
      vertex 1.46722 -0.311868 0
    endloop
  endfacet
  facet normal 0 0 -1
    outer loop
      vertex 1.37032 -0.610106 0
      vertex 1.37032 0.610104 0
      vertex 1.46722 0.311867 0
    endloop
  endfacet
  facet normal 0 0 -1
    outer loop
      vertex 1.21353 -0.881678 0
      vertex 1.37032 0.610104 0
      vertex 1.37032 -0.610106 0
    endloop
  endfacet
  facet normal 0 0 -1
    outer loop
      vertex 1.21353 -0.881678 0
      vertex 1.21353 0.881677 0
      vertex 1.37032 0.610104 0
    endloop
  endfacet
  facet normal 0 0 -1
    outer loop
      vertex 1.0037 -1.11472 0
      vertex 1.21353 0.881677 0
      vertex 1.21353 -0.881678 0
    endloop
  endfacet
  facet normal 0 0 -1
    outer loop
      vertex 1.0037 -1.11472 0
      vertex 1.0037 1.11472 0
      vertex 1.21353 0.881677 0
    endloop
  endfacet
  facet normal 0 0 -1
    outer loop
      vertex 0.75 -1.29904 0
      vertex 1.0037 1.11472 0
      vertex 1.0037 -1.11472 0
    endloop
  endfacet
  facet normal 0 0 -1
    outer loop
      vertex 0.75 -1.29904 0
      vertex 0.75 1.29904 0
      vertex 1.0037 1.11472 0
    endloop
  endfacet
  facet normal 0 0 -1
    outer loop
      vertex 0.463525 -1.42659 0
      vertex 0.75 1.29904 0
      vertex 0.75 -1.29904 0
    endloop
  endfacet
  facet normal 0 0 -1
    outer loop
      vertex 0.463525 -1.42659 0
      vertex 0.463525 1.42658 0
      vertex 0.75 1.29904 0
    endloop
  endfacet
  facet normal 0 0 -1
    outer loop
      vertex 0.156792 -1.49178 0
      vertex 0.463525 1.42658 0
      vertex 0.463525 -1.42659 0
    endloop
  endfacet
  facet normal 0 0 -1
    outer loop
      vertex 0.156792 -1.49178 0
      vertex 0.156792 1.49178 0
      vertex 0.463525 1.42658 0
    endloop
  endfacet
  facet normal 0 0 -1
    outer loop
      vertex -0.156793 -1.49178 0
      vertex 0.156792 1.49178 0
      vertex 0.156792 -1.49178 0
    endloop
  endfacet
  facet normal 0 0 -1
    outer loop
      vertex -0.156793 -1.49178 0
      vertex -0.156793 1.49178 0
      vertex 0.156792 1.49178 0
    endloop
  endfacet
  facet normal 0 0 -1
    outer loop
      vertex -0.463526 -1.42659 0
      vertex -0.156793 1.49178 0
      vertex -0.156793 -1.49178 0
    endloop
  endfacet
  facet normal 0 0 -1
    outer loop
      vertex -0.463526 -1.42659 0
      vertex -0.463526 1.42658 0
      vertex -0.156793 1.49178 0
    endloop
  endfacet
  facet normal 0 0 -1
    outer loop
      vertex -0.75 -1.29904 0
      vertex -0.463526 1.42658 0
      vertex -0.463526 -1.42659 0
    endloop
  endfacet
  facet normal 0 0 -1
    outer loop
      vertex -0.75 -1.29904 0
      vertex -0.75 1.29904 0
      vertex -0.463526 1.42658 0
    endloop
  endfacet
  facet normal 0 0 -1
    outer loop
      vertex -1.0037 -1.11472 0
      vertex -0.75 1.29904 0
      vertex -0.75 -1.29904 0
    endloop
  endfacet
  facet normal 0 0 -1
    outer loop
      vertex -1.0037 -1.11472 0
      vertex -1.0037 1.11472 0
      vertex -0.75 1.29904 0
    endloop
  endfacet
  facet normal 0 0 -1
    outer loop
      vertex -1.21353 -0.881678 0
      vertex -1.0037 1.11472 0
      vertex -1.0037 -1.11472 0
    endloop
  endfacet
  facet normal 0 0 -1
    outer loop
      vertex -1.21353 -0.881678 0
      vertex -1.21353 0.881677 0
      vertex -1.0037 1.11472 0
    endloop
  endfacet
  facet normal 0 0 -1
    outer loop
      vertex -1.37032 -0.610106 0
      vertex -1.21353 0.881677 0
      vertex -1.21353 -0.881678 0
    endloop
  endfacet
  facet normal 0 0 -1
    outer loop
      vertex -1.37032 -0.610106 0
      vertex -1.37032 0.610104 0
      vertex -1.21353 0.881677 0
    endloop
  endfacet
  facet normal 0 0 -1
    outer loop
      vertex -1.46722 -0.311868 0
      vertex -1.37032 0.610104 0
      vertex -1.37032 -0.610106 0
    endloop
  endfacet
  facet normal 0 0 -1
    outer loop
      vertex -1.46722 -0.311868 0
      vertex -1.46722 0.311867 0
      vertex -1.37032 0.610104 0
    endloop
  endfacet
  facet normal 0 -0 -1
    outer loop
      vertex -1.46722 0.311867 0
      vertex -1.46722 -0.311868 0
      vertex -1.5 -3.8147e-07 0
    endloop
  endfacet
  facet normal 0.207911 -0.978148 0
    outer loop
      vertex 0.156792 -1.49178 0
      vertex 0.463525 -1.42659 8.6
      vertex 0.156792 -1.49178 8.6
    endloop
  endfacet
  facet normal 0.207911 -0.978148 0
    outer loop
      vertex 0.463525 -1.42659 8.6
      vertex 0.156792 -1.49178 0
      vertex 0.463525 -1.42659 0
    endloop
  endfacet
  facet normal 0.587785 -0.809017 0
    outer loop
      vertex 0.75 -1.29904 0
      vertex 1.0037 -1.11472 8.6
      vertex 0.75 -1.29904 8.6
    endloop
  endfacet
  facet normal 0.587785 -0.809017 0
    outer loop
      vertex 1.0037 -1.11472 8.6
      vertex 0.75 -1.29904 0
      vertex 1.0037 -1.11472 0
    endloop
  endfacet
  facet normal 0.743144 -0.669131 0
    outer loop
      vertex 1.0037 -1.11472 8.6
      vertex 1.21353 -0.881678 0
      vertex 1.21353 -0.881678 8.6
    endloop
  endfacet
  facet normal 0.743144 -0.669131 0
    outer loop
      vertex 1.21353 -0.881678 0
      vertex 1.0037 -1.11472 8.6
      vertex 1.0037 -1.11472 0
    endloop
  endfacet
  facet normal 0.951057 -0.309016 0
    outer loop
      vertex 1.37032 -0.610106 8.6
      vertex 1.46722 -0.311868 0
      vertex 1.46722 -0.311868 8.6
    endloop
  endfacet
  facet normal 0.951057 -0.309016 0
    outer loop
      vertex 1.46722 -0.311868 0
      vertex 1.37032 -0.610106 8.6
      vertex 1.37032 -0.610106 0
    endloop
  endfacet
  facet normal -0.587784 -0.809018 0
    outer loop
      vertex -1.0037 -1.11472 0
      vertex -0.75 -1.29904 8.6
      vertex -1.0037 -1.11472 8.6
    endloop
  endfacet
  facet normal -0.587784 -0.809018 -0
    outer loop
      vertex -0.75 -1.29904 8.6
      vertex -1.0037 -1.11472 0
      vertex -0.75 -1.29904 0
    endloop
  endfacet
  facet normal -0.866025 -0.500001 0
    outer loop
      vertex -1.21353 -0.881678 0
      vertex -1.37032 -0.610106 8.6
      vertex -1.37032 -0.610106 0
    endloop
  endfacet
  facet normal -0.866025 -0.500001 0
    outer loop
      vertex -1.37032 -0.610106 8.6
      vertex -1.21353 -0.881678 0
      vertex -1.21353 -0.881678 8.6
    endloop
  endfacet
  facet normal -0.743146 -0.669129 0
    outer loop
      vertex -1.0037 -1.11472 0
      vertex -1.21353 -0.881678 8.6
      vertex -1.21353 -0.881678 0
    endloop
  endfacet
  facet normal -0.743146 -0.669129 0
    outer loop
      vertex -1.21353 -0.881678 8.6
      vertex -1.0037 -1.11472 0
      vertex -1.0037 -1.11472 8.6
    endloop
  endfacet
  facet normal -0.994522 -0.104529 0
    outer loop
      vertex -1.46722 -0.311868 0
      vertex -1.5 -3.8147e-07 8.6
      vertex -1.5 -3.8147e-07 0
    endloop
  endfacet
  facet normal -0.994522 -0.104529 0
    outer loop
      vertex -1.5 -3.8147e-07 8.6
      vertex -1.46722 -0.311868 0
      vertex -1.46722 -0.311868 8.6
    endloop
  endfacet
  facet normal 0.406739 -0.913545 0
    outer loop
      vertex 0.463525 -1.42659 0
      vertex 0.75 -1.29904 8.6
      vertex 0.463525 -1.42659 8.6
    endloop
  endfacet
  facet normal 0.406739 -0.913545 0
    outer loop
      vertex 0.75 -1.29904 8.6
      vertex 0.463525 -1.42659 0
      vertex 0.75 -1.29904 0
    endloop
  endfacet
  facet normal -0.207911 -0.978148 0
    outer loop
      vertex -0.463526 -1.42659 0
      vertex -0.156793 -1.49178 8.6
      vertex -0.463526 -1.42659 8.6
    endloop
  endfacet
  facet normal -0.207911 -0.978148 -0
    outer loop
      vertex -0.156793 -1.49178 8.6
      vertex -0.463526 -1.42659 0
      vertex -0.156793 -1.49178 0
    endloop
  endfacet
  facet normal -0.951057 -0.309016 0
    outer loop
      vertex -1.37032 -0.610106 0
      vertex -1.46722 -0.311868 8.6
      vertex -1.46722 -0.311868 0
    endloop
  endfacet
  facet normal -0.951057 -0.309016 0
    outer loop
      vertex -1.46722 -0.311868 8.6
      vertex -1.37032 -0.610106 0
      vertex -1.37032 -0.610106 8.6
    endloop
  endfacet
  facet normal -0.406739 -0.913545 0
    outer loop
      vertex -0.75 -1.29904 0
      vertex -0.463526 -1.42659 8.6
      vertex -0.75 -1.29904 8.6
    endloop
  endfacet
  facet normal -0.406739 -0.913545 -0
    outer loop
      vertex -0.463526 -1.42659 8.6
      vertex -0.75 -1.29904 0
      vertex -0.463526 -1.42659 0
    endloop
  endfacet
endsolid OpenSCAD_Model
